{
    "asset": {
        "version": "2.0",
        "generator": "Open Asset Import Library (assimp v5.2.cf7d3637)"
    },
    "extensionsUsed": [
        "KHR_materials_volume",
        "FB_ngon_encoding"
    ],
    "accessors": [
        {
            "bufferView": 0,
            "byteOffset": 0,
            "componentType": 5126,
            "count": 59040,
            "type": "VEC3",
            "max": [
                1.0063400268554688,
                1.0063400268554688,
                1.0063401460647584
            ],
            "min": [
                -1.0063401460647584,
                -1.0063400268554688,
                -1.0063400268554688
            ]
        },
        {
            "bufferView": 1,
            "byteOffset": 0,
            "componentType": 5126,
            "count": 59040,
            "type": "VEC3",
            "max": [
                0.9995460510253906,
                0.9995460510253906,
                1.0
            ],
            "min": [
                -0.9995460510253906,
                -0.9995460510253906,
                -0.9995460510253906
            ]
        },
        {
            "bufferView": 2,
            "byteOffset": 0,
            "componentType": 5125,
            "count": 59040,
            "type": "SCALAR",
            "max": [
                59039
            ],
            "min": [
                0
            ]
        },
        {
            "bufferView": 3,
            "byteOffset": 0,
            "componentType": 5126,
            "count": 29520,
            "type": "VEC3",
            "max": [
                0.9998819231987,
                0.9998819231987,
                0.9998819231987
            ],
            "min": [
                -0.9998819231987,
                -0.9998819231987,
                -0.9998819231987
            ]
        },
        {
            "bufferView": 4,
            "byteOffset": 0,
            "componentType": 5126,
            "count": 29520,
            "type": "VEC3",
            "max": [
                0.9833576083183289,
                0.9833576083183289,
                1.0
            ],
            "min": [
                -0.9833576083183289,
                -0.9833576083183289,
                -0.9833576083183289
            ]
        },
        {
            "bufferView": 5,
            "byteOffset": 0,
            "componentType": 5125,
            "count": 29520,
            "type": "SCALAR",
            "max": [
                29519
            ],
            "min": [
                0
            ]
        }
    ],
    "buffers": [
        {
            "byteLength": 2479680,
            "uri": "result.bin"
        }
    ],
    "bufferViews": [
        {
            "buffer": 0,
            "byteOffset": 0,
            "byteLength": 708480,
            "target": 34962
        },
        {
            "buffer": 0,
            "byteOffset": 708480,
            "byteLength": 708480,
            "target": 34962
        },
        {
            "buffer": 0,
            "byteOffset": 1416960,
            "byteLength": 236160,
            "target": 34963
        },
        {
            "buffer": 0,
            "byteOffset": 1653120,
            "byteLength": 354240,
            "target": 34962
        },
        {
            "buffer": 0,
            "byteOffset": 2007360,
            "byteLength": 354240,
            "target": 34962
        },
        {
            "buffer": 0,
            "byteOffset": 2361600,
            "byteLength": 118080,
            "target": 34963
        }
    ],
    "materials": [
        {
            "name": "Bianco",
            "pbrMetallicRoughness": {
                "baseColorFactor": [
                    0.800000011920929,
                    0.800000011920929,
                    0.800000011920929,
                    1.0
                ],
                "metallicFactor": 0.0,
                "roughnessFactor": 0.7763932347297669
            }
        },
        {
            "name": "Nero.001",
            "pbrMetallicRoughness": {
                "baseColorFactor": [
                    0.01738777570426464,
                    0.01738777570426464,
                    0.01738777570426464,
                    1.0
                ],
                "metallicFactor": 0.0,
                "roughnessFactor": 0.7763932347297669
            }
        }
    ],
    "meshes": [
        {
            "name": "Solid.001",
            "primitives": [
                {
                    "extensions": {
                        "FB_ngon_encoding": {}
                    },
                    "mode": 4,
                    "material": 0,
                    "indices": 2,
                    "attributes": {
                        "POSITION": 0,
                        "NORMAL": 1
                    }
                },
                {
                    "extensions": {
                        "FB_ngon_encoding": {}
                    },
                    "mode": 4,
                    "material": 1,
                    "indices": 5,
                    "attributes": {
                        "POSITION": 3,
                        "NORMAL": 4
                    }
                }
            ]
        }
    ],
    "nodes": [
        {
            "name": "<BlenderRoot>",
            "children": [
                1,
                2,
                3
            ]
        },
        {
            "name": "Solid.001",
            "mesh": 0
        },
        {
            "name": "Lamp",
            "matrix": [
                -0.29086464643478396,
                0.9551711678504944,
                -0.05518905818462372,
                0.0,
                -0.7711008191108704,
                -0.1998833566904068,
                0.6045247316360474,
                0.0,
                0.5663931965827942,
                0.21839119493961335,
                0.7946722507476807,
                0.0,
                4.076245307922363,
                1.0054539442062379,
                5.903861999511719,
                1.0
            ]
        },
        {
            "name": "Camera",
            "matrix": [
                0.6858805418014526,
                0.7276337742805481,
                -0.010816780850291253,
                0.0,
                -0.31737011671066286,
                0.31246861815452578,
                0.8953432440757752,
                0.0,
                0.6548618674278259,
                -0.6106656193733215,
                0.4452453553676605,
                0.0,
                7.481131553649902,
                -6.5076398849487309,
                5.34366512298584,
                1.0
            ]
        }
    ],
    "scenes": [
        {
            "nodes": [
                0
            ]
        }
    ],
    "scene": 0
}